<svg xmlns="http://www.w3.org/2000/svg" width="400" height="400" xml:space="preserve"><path style="stroke:none;stroke-width:1;stroke-dasharray:none;stroke-linecap:butt;stroke-dashoffset:0;stroke-linejoin:miter;stroke-miterlimit:4;fill:#fff;fill-rule:evenodd;opacity:1" transform="matrix(.39 0 0 .39 100.157 100.048)" d="M253.84 68.77c-1.182.421-2.105 1.108-2.791 2.076a5.353 5.353 0 0 0-1.031 3.182c0 1.057.308 2.043.936 2.956.629.907 1.594 1.644 2.886 2.197V68.77z" fill="#fff"/>
    <path style="stroke:none;stroke-width:1;stroke-dasharray:none;stroke-linecap:butt;stroke-dashoffset:0;stroke-linejoin:miter;stroke-miterlimit:4;fill:#fff;fill-rule:evenodd;opacity:1"
          fill="#fff"
          transform="matrix(.39 0 0 .39 100.166 100.061)"
          d="M263.343 94.729c0-1.335-.402-2.495-1.206-3.459-.791-.974-2.098-1.717-3.911-2.24v11.781c1.507-.333 2.741-1.047 3.685-2.157.956-1.11 1.432-2.415 1.432-3.925z"/>
    <path style="stroke:none;stroke-width:1;stroke-dasharray:none;stroke-linecap:butt;stroke-dashoffset:0;stroke-linejoin:miter;stroke-miterlimit:4;fill:#fff;fill-rule:evenodd;opacity:1"
          fill="#fff"
          transform="matrix(.39 0 0 .39 100.16 100.239)"
          d="M175.383 412.206h98.578a4.687 4.687 0 0 1 0 9.372h-94.916l17.292 44.255h119.327l34.757-88.95H247.022a4.687 4.687 0 0 1 0-9.372h107.06l20.785-53.191H137.133l38.25 97.886z"/>
    <path style="stroke:none;stroke-width:1;stroke-dasharray:none;stroke-linecap:butt;stroke-dashoffset:0;stroke-linejoin:miter;stroke-miterlimit:4;fill:#fff;fill-rule:evenodd;opacity:1"
          fill="#fff"
          transform="matrix(.39 0 0 .39 100.16 100.112)"
          d="M260.588 278.564a4.67 4.67 0 0 0 .094-.938l.004-63.916 29.74-24.781c.191.065.386.123.588.163 5.587 1.107 10.924 1.669 15.863 1.669 12.862 0 23.084-3.682 30.384-10.943 10.114-10.07 13.337-26.001 9.319-46.073a4.682 4.682 0 0 0-3.684-3.676c-5.586-1.107-10.923-1.669-15.862-1.669-12.863 0-23.087 3.682-30.384 10.943-9.193 9.155-12.671 23.167-10.215 40.714l-25.75 21.456.004-75.613c19.976-2.318 35.532-19.244 35.532-39.726 0-22.06-18.042-40.005-40.218-40.005s-40.217 17.946-40.217 40.005c0 20.481 15.557 37.409 35.531 39.726l-.005 107.066-26.835-23.987c.733-19.266-4.613-33.8-15.562-42.098-6.416-4.857-14.395-7.319-23.713-7.319-7.121 0-14.982 1.456-23.365 4.328a4.685 4.685 0 0 0-3.157 4.143c-1.268 20.426 4.079 35.78 15.463 44.403 6.416 4.856 14.394 7.319 23.712 7.32h.001c6.368 0 13.333-1.173 20.73-3.474l32.725 29.251-.001 32.093c0 .321.033.635.094.938H117v26.384h278v-26.384H260.588zM241.263 94.587l7.835-.927c.315 1.604.92 2.979 1.805 4.138.884 1.163 1.863 1.992 2.938 2.517v-12.58c-3.917-1.116-6.781-2.812-8.602-5.082-1.827-2.281-2.74-5.032-2.74-8.277 0-3.288 1.038-6.048 3.099-8.277 2.068-2.237 4.81-3.521 8.244-3.859v-2.96h4.385v2.96c3.201.378 5.753 1.465 7.652 3.266 1.893 1.796 3.106 4.197 3.634 7.205l-7.652.99c-.469-2.365-1.683-3.965-3.634-4.81v11.74c4.839 1.292 8.134 2.987 9.89 5.052 1.753 2.073 2.629 4.731 2.629 7.977 0 3.626-1.104 6.678-3.309 9.16-2.215 2.486-5.278 4.027-9.21 4.645v5.606h-4.385v-5.548c-3.448-.417-6.256-1.693-8.425-3.839-2.174-2.146-3.547-5.183-4.154-9.097z"/>
    <rect style="stroke:none;stroke-width:1;stroke-dasharray:none;stroke-linecap:butt;stroke-dashoffset:0;stroke-linejoin:miter;stroke-miterlimit:4;fill:#fff;fill-rule:evenodd;opacity:1"
          fill="#fff"
          x="-8.968" y="-8.925" rx="0" ry="0" width="17.936" height="17.85"
          transform="matrix(.39 0 0 .39 214.04 193.02)"/>
    <rect style="stroke:none;stroke-width:1;stroke-dasharray:none;stroke-linecap:butt;stroke-dashoffset:0;stroke-linejoin:miter;stroke-miterlimit:4;fill:#fff;fill-rule:evenodd;opacity:1"
          fill="#fff"
          x="-8.967" y="-8.925" rx="0" ry="0" width="17.934" height="17.85"
          transform="matrix(.39 0 0 .39 228.07 193.02)"/>
    <rect style="stroke:none;stroke-width:1;stroke-dasharray:none;stroke-linecap:butt;stroke-dashoffset:0;stroke-linejoin:miter;stroke-miterlimit:4;fill:#fff;fill-rule:evenodd;opacity:1"
          fill="#fff"
          x="-8.968" y="-8.925" rx="0" ry="0" width="17.936" height="17.85"
          transform="matrix(.39 0 0 .39 242.1 193.02)"/>
    <rect style="stroke:none;stroke-width:1;stroke-dasharray:none;stroke-linecap:butt;stroke-dashoffset:0;stroke-linejoin:miter;stroke-miterlimit:4;fill:#fff;fill-rule:evenodd;opacity:1"
          x="-8.966" y="-8.925" rx="0" ry="0" width="17.933" height="17.85"
          transform="matrix(.39 0 0 .39 150.89 193.02)"/>
    <rect style="stroke:none;stroke-width:1;stroke-dasharray:none;stroke-linecap:butt;stroke-dashoffset:0;stroke-linejoin:miter;stroke-miterlimit:4;fill:#fff;fill-rule:evenodd;opacity:1"
          x="-8.966" y="-8.925" rx="0" ry="0" width="17.933" height="17.85"
          transform="matrix(.39 0 0 .39 164.93 193.02)"/>
    <rect style="stroke:none;stroke-width:1;stroke-dasharray:none;stroke-linecap:butt;stroke-dashoffset:0;stroke-linejoin:miter;stroke-miterlimit:4;fill:#fff;fill-rule:evenodd;opacity:1"
          x="-8.967" y="-8.925" rx="0" ry="0" width="17.935" height="17.85"
          transform="matrix(.39 0 0 .39 178.96 193.02)"/></svg>