<svg width="126" height="38" viewBox="0 0 126 38" fill="none" xmlns="http://www.w3.org/2000/svg">
<path d="M11.248 37.624C19.308 37.624 25.184 32.632 25.184 24.78C25.184 18.54 21.336 12.924 13.484 12.924C10.936 12.924 8.85599 13.6 7.34799 14.484L7.91999 6.58001H22.896V0.600006H2.14799L1.05599 18.748L7.24399 21.348C8.69999 19.788 10.468 18.852 12.964 18.852C16.604 18.852 18.892 20.984 18.892 24.832C18.892 28.992 15.824 31.696 11.248 31.696C7.45199 31.696 5.26799 30.448 3.55199 29.304L0.0159912 34.192C1.93999 35.804 5.52799 37.624 11.248 37.624Z" fill="white"/>
<path d="M67.6989 37H74.2509L60.7309 0.600006H54.5429L40.9709 37H47.5749L50.4349 29.044H64.8389L67.6989 37ZM62.8629 23.428H52.4109L56.4669 12.508C56.8309 11.468 57.3509 9.90801 57.6629 8.81601C57.9229 9.90801 58.4429 11.468 58.8589 12.508L62.8629 23.428Z" fill="white"/>
<path d="M82.2 37.624C84.54 37.624 86.36 35.856 86.36 33.568C86.36 31.332 84.54 29.512 82.2 29.512C79.808 29.512 78.04 31.332 78.04 33.568C78.04 35.856 79.808 37.624 82.2 37.624Z" fill="white"/>
<path d="M125.798 37V0.600006H119.714L110.302 21.972C109.938 22.856 109.574 23.844 109.314 24.676C109.054 23.844 108.69 22.856 108.326 21.972L98.9659 0.600006H92.6739V37H98.9139V17.656C98.9139 16.356 98.8099 14.276 98.7059 13.288C99.1739 14.692 99.8499 16.408 100.422 17.656L109.262 37.624L118.102 17.76C118.622 16.46 119.298 14.692 119.766 13.288C119.662 14.276 119.558 16.356 119.558 17.656V37H125.798Z" fill="white"/>
</svg>
