<svg viewBox="0 0 70 70" xml:space="preserve" xmlns="http://www.w3.org/2000/svg">
    <path fill="#fff"
          d="M17.5 48.5h16.2v2.7H17.5zM38.7 34.3l2.3-2.8c1.6 1.3 3.3 2.2 5.3 2.2 1.6 0 2.5-.6 2.5-1.7v-.1c0-1-.6-1.5-3.6-2.3-3.6-.9-5.8-1.9-5.8-5.5V24c0-3.3 2.6-5.4 6.2-5.4 2.6 0 4.8.8 6.6 2.3l-2 3c-1.6-1.1-3.1-1.8-4.6-1.8s-2.3.7-2.3 1.6v.1c0 1.2.8 1.6 3.8 2.4 3.6 1 5.6 2.3 5.6 5.4v.1c0 3.6-2.7 5.6-6.5 5.6-2.7-.1-5.4-1.1-7.5-3M35.2 19l-2.7 10.4-3-10.4h-3l-3.1 10.4L20.7 19h-4.1l5.1 17.9H25l3-10.4 2.9 10.4h3.4L39.4 19z"/></svg>